<svg width="14" height="16" viewBox="0 0 14 16" fill="none" xmlns="http://www.w3.org/2000/svg">
<path d="M4.82761 15.9013C2.47561 15.888 0.530273 11.0866 0.530273 8.6413C0.530273 4.64797 3.52627 3.7733 4.68161 3.7733C5.20161 3.7733 5.75761 3.9773 6.24761 4.15863C6.59027 4.28463 6.94427 4.41463 7.14161 4.41463C7.25961 4.41463 7.53761 4.30397 7.78294 4.20663C8.30694 3.99863 8.95827 3.73997 9.71627 3.73997H9.72161C10.2883 3.73997 12.0056 3.86397 13.0383 5.41463L13.2803 5.77797L12.9316 6.04063C12.4349 6.41597 11.5269 7.10063 11.5269 8.45597C11.5269 10.0626 12.5549 10.68 13.0483 10.9766C13.2663 11.108 13.4923 11.2433 13.4923 11.5386C13.4923 11.732 11.9509 15.8773 9.71361 15.8773C9.16627 15.8773 8.77894 15.7126 8.43761 15.5673C8.09227 15.4206 7.79427 15.294 7.30227 15.294C7.05227 15.294 6.73694 15.412 6.40227 15.5373C5.94627 15.708 5.42894 15.9013 4.84294 15.9013H4.82761ZM9.95361 0.0986328C10.0129 2.19997 8.50961 3.6573 7.00961 3.56663C6.76227 1.88997 8.50961 0.0999661 9.95427 0.0999661L9.95361 0.0986328Z" fill="#202223"/>
</svg>
