<svg width="13" height="16" viewBox="0 0 13 16" fill="none" xmlns="http://www.w3.org/2000/svg">
<path d="M4.29733 15.8027C1.94533 15.7893 0 10.988 0 8.54267C0 4.54933 2.996 3.67467 4.15133 3.67467C4.67133 3.67467 5.22733 3.87867 5.71733 4.06C6.06 4.186 6.414 4.316 6.61133 4.316C6.72933 4.316 7.00733 4.20533 7.25267 4.108C7.77667 3.9 8.428 3.64133 9.186 3.64133H9.19133C9.758 3.64133 11.4753 3.76533 12.508 5.316L12.75 5.67933L12.4013 5.942C11.9047 6.31733 10.9967 7.002 10.9967 8.35733C10.9967 9.964 12.0247 10.5813 12.518 10.878C12.736 11.0093 12.962 11.1447 12.962 11.44C12.962 11.6333 11.4207 15.7787 9.18333 15.7787C8.636 15.7787 8.24867 15.614 7.90733 15.4687C7.562 15.322 7.264 15.1953 6.772 15.1953C6.522 15.1953 6.20667 15.3133 5.872 15.4387C5.416 15.6093 4.89867 15.8027 4.31267 15.8027H4.29733ZM9.42333 0C9.48267 2.10133 7.97933 3.55867 6.47933 3.468C6.232 1.79133 7.97933 0.00133334 9.424 0.00133334L9.42333 0Z" fill="white"/>
</svg>
