<svg width="20" height="20" viewBox="0 0 20 20" fill="none" xmlns="http://www.w3.org/2000/svg">
<mask id="mask0_141_13602" style="mask-type:alpha" maskUnits="userSpaceOnUse" x="0" y="0" width="20" height="20">
<path d="M0 0H20V20H0V0Z" fill="#1F2937"/>
</mask>
<g mask="url(#mask0_141_13602)">
<path d="M4.16658 17.4999C3.94738 17.503 3.72986 17.4611 3.52743 17.377C3.32499 17.2928 3.14191 17.1682 2.98944 17.0106C2.83191 16.8582 2.70724 16.6751 2.62309 16.4726C2.53895 16.2702 2.49711 16.0527 2.50015 15.8335V4.16634C2.50015 3.70872 2.66325 3.31634 2.98944 2.9892C3.14191 2.83167 3.32499 2.70699 3.52743 2.62285C3.72986 2.53871 3.94738 2.49687 4.16658 2.49991H15.8337C16.2913 2.49991 16.6837 2.66301 17.0109 2.9892C17.3366 3.31586 17.4997 3.70824 17.5002 4.16634H10.8337C9.84801 4.16634 9.04563 4.47539 8.42658 5.09348C7.80896 5.71205 7.50016 6.5142 7.50016 7.49991V12.4999C7.50016 13.4856 7.8092 14.2878 8.4273 14.9063C9.04539 15.5244 9.84754 15.8335 10.8337 15.8335H17.5002C17.5002 16.2911 17.3371 16.6835 17.0109 17.0106C16.8584 17.1682 16.6753 17.2928 16.4729 17.377C16.2704 17.4611 16.0529 17.503 15.8337 17.4999H4.16658ZM10.8337 14.1663C10.6145 14.1694 10.397 14.1275 10.1946 14.0434C9.99213 13.9593 9.80905 13.8346 9.65658 13.6771C9.49892 13.5247 9.37412 13.3416 9.28985 13.1392C9.20558 12.9367 9.16363 12.7192 9.16658 12.4999V7.49991C9.16658 7.04134 9.32992 6.64896 9.65658 6.32277C9.80905 6.16524 9.99213 6.04057 10.1946 5.95642C10.397 5.87228 10.6145 5.83044 10.8337 5.83348H16.6666C17.1252 5.83348 17.5175 5.99658 17.8437 6.32277C18.1704 6.64896 18.3337 7.04134 18.3337 7.49991V12.4999C18.3337 12.9585 18.1704 13.3509 17.8437 13.6771C17.6913 13.8346 17.5082 13.9593 17.3057 14.0434C17.1033 14.1275 16.8858 14.1694 16.6666 14.1663H10.8337ZM13.3337 11.2499C13.6947 11.2499 13.9933 11.1318 14.2294 10.8956C14.4652 10.6599 14.5833 10.3613 14.5837 9.99991C14.5837 9.63848 14.4656 9.33991 14.2294 9.1042C13.9933 8.86848 13.6947 8.75039 13.3337 8.74991C12.9728 8.74943 12.674 8.86753 12.4373 9.1042C12.2016 9.33991 12.0837 9.63848 12.0837 9.99991C12.0837 10.3613 12.2016 10.6599 12.4373 10.8956C12.673 11.1313 12.9718 11.2494 13.3337 11.2499Z" fill="#1F2937"/>
</g>
</svg>
