<svg width="24" height="24" viewBox="0 0 24 24" fill="none" xmlns="http://www.w3.org/2000/svg">
<path d="M5.25 15C6.49264 15 7.5 13.9927 7.5 12.75C7.5 11.5073 6.49264 10.5 5.25 10.5C4.00736 10.5 3 11.5073 3 12.75C3 13.9927 4.00736 15 5.25 15Z" stroke="#202223" stroke-width="1.63636" stroke-linecap="round" stroke-linejoin="round"/>
<path d="M12 10.5C13.2427 10.5 14.25 9.49264 14.25 8.25C14.25 7.00736 13.2427 6 12 6C10.7574 6 9.75 7.00736 9.75 8.25C9.75 9.49264 10.7574 10.5 12 10.5Z" stroke="#202223" stroke-width="1.63636" stroke-linecap="round" stroke-linejoin="round"/>
<path d="M18.75 18C19.9927 18 21 16.9927 21 15.75C21 14.5073 19.9927 13.5 18.75 13.5C17.5073 13.5 16.5 14.5073 16.5 15.75C16.5 16.9927 17.5073 18 18.75 18Z" stroke="#202223" stroke-width="1.63636" stroke-linecap="round" stroke-linejoin="round"/>
<path d="M5.25 3.75V10.5" stroke="#202223" stroke-width="1.63636" stroke-linecap="round" stroke-linejoin="round"/>
<path d="M18.75 3.75V13.5" stroke="#202223" stroke-width="1.63636" stroke-linecap="round" stroke-linejoin="round"/>
<path d="M12 3.75V6" stroke="#202223" stroke-width="1.63636" stroke-linecap="round" stroke-linejoin="round"/>
<path d="M5.25 15V20.25" stroke="#202223" stroke-width="1.63636" stroke-linecap="round" stroke-linejoin="round"/>
<path d="M18.75 18V20.25" stroke="#202223" stroke-width="1.63636" stroke-linecap="round" stroke-linejoin="round"/>
<path d="M12 10.5V20.25" stroke="#202223" stroke-width="1.63636" stroke-linecap="round" stroke-linejoin="round"/>
</svg>
