<svg width="124" height="125" viewBox="0 0 124 125" fill="none" xmlns="http://www.w3.org/2000/svg">
<g clip-path="url(#clip0_41_7687)">
<path d="M90.2708 36.9929C96.6136 30.6501 106.529 29.5627 111.785 29.4851C113.881 29.4592 115.409 30.9866 115.383 33.0837C115.279 38.3133 114.218 48.2287 107.876 54.5974C101.532 60.9662 91.6171 62.0275 86.3615 62.1053C84.2645 62.1311 82.7371 60.6037 82.763 58.5067C82.8665 53.2771 83.928 43.3357 90.2708 36.9929Z" fill="url(#paint0_linear_41_7687)"/>
<path d="M96.277 49.4713C104.07 44.9925 113.908 46.5459 119.008 47.8144C121.053 48.3322 122.114 50.1962 121.545 52.2156C120.095 57.238 116.47 66.5321 108.677 71.011C100.885 75.4897 91.0474 73.9364 85.9473 72.6679C83.9021 72.1501 82.8406 70.2861 83.4102 68.2667C84.86 63.2443 88.5103 53.9501 96.277 49.4713Z" fill="url(#paint1_linear_41_7687)"/>
<path d="M99.7461 60.5002C108.626 59.1021 117.273 64.0728 121.545 67.0759C123.28 68.2927 123.616 70.4156 122.322 72.0984C119.163 76.2666 112.457 83.6449 103.578 85.0429C94.6978 86.4409 86.0508 81.4702 81.7792 78.4671C80.0447 77.2503 79.708 75.1274 81.0026 73.4446C84.161 69.2765 90.8662 61.8982 99.7461 60.5002Z" fill="url(#paint2_linear_41_7687)"/>
<path d="M94.5166 70.6745C102.982 73.6775 108.238 82.1433 110.567 86.8292C111.5 88.7191 110.8 90.7385 108.885 91.6186C104.121 93.7933 94.6979 97.1071 86.2321 94.104C77.7664 91.1009 72.5109 82.6093 70.1809 77.9492C69.249 76.0594 69.948 74.0142 71.8637 73.1598C76.6273 70.9593 86.0509 67.6714 94.5166 70.6745Z" fill="url(#paint3_linear_41_7687)"/>
<path d="M33.7291 36.9929C27.3863 30.6501 17.4709 29.5627 12.2154 29.4851C10.1184 29.4592 8.59095 30.9866 8.61684 33.0837C8.7204 38.3133 9.78185 48.2287 16.1247 54.5974C22.4675 60.9662 32.383 62.0275 37.6385 62.1053C39.7355 62.1311 41.2629 60.6037 41.237 58.5067C41.1334 53.2771 40.072 43.3357 33.7291 36.9929Z" fill="url(#paint4_linear_41_7687)"/>
<path d="M27.723 49.4713C19.9303 44.9925 10.0667 46.5459 4.99242 47.8144C2.94719 48.3322 1.88574 50.1962 2.4553 52.2156C3.90508 57.238 7.52954 66.5321 15.3221 71.011C23.1147 75.4897 32.9784 73.9364 38.0527 72.6679C40.0979 72.1501 41.1852 70.2861 40.5898 68.2667C39.1141 63.2443 35.4897 53.9501 27.723 49.4713Z" fill="url(#paint5_linear_41_7687)"/>
<path d="M24.2539 60.5002C15.3998 59.1021 6.75285 64.0728 2.45528 67.0759C0.720712 68.2927 0.384156 70.4156 1.6786 72.0984C4.83707 76.2666 11.5424 83.6449 20.4223 85.0429C29.3022 86.4409 37.9491 81.4702 42.2208 78.4671C43.9553 77.2503 44.2661 75.1274 43.0234 73.4446C39.8391 69.2765 33.1338 61.8982 24.2539 60.5002Z" fill="url(#paint6_linear_41_7687)"/>
<path d="M29.4835 70.6745C21.0177 73.6775 15.7622 82.1433 13.4322 86.8292C12.5003 88.7191 13.2251 90.7385 15.1409 91.6186C19.9045 93.7933 29.328 97.1071 37.7938 94.104C46.2595 91.1009 51.5149 82.6093 53.845 77.9492C54.777 76.0594 54.078 74.0142 52.1363 73.1598C47.3727 70.9593 37.9491 67.6714 29.4835 70.6745Z" fill="url(#paint7_linear_41_7687)"/>
<path d="M57.0811 16.3852L33.2115 26.1712C28.3443 28.1647 25.1858 32.9024 25.1858 38.1578V69.5353C25.1858 97.7544 49.8063 106.66 58.7898 108.964C60.9126 109.508 63.1132 109.508 65.2361 108.964C74.2197 106.66 98.8401 97.7544 98.8401 69.5353V38.1578C98.8401 32.9024 95.6557 28.1647 90.8145 26.1712L66.919 16.3852C63.7605 15.0908 60.2395 15.0908 57.0811 16.3852Z" fill="url(#paint8_linear_41_7687)"/>
<path d="M62 102.88C61.4563 102.88 60.9127 102.803 60.3949 102.673C56.5375 101.689 49.0815 99.23 42.7386 93.9745C35.3861 87.8647 31.6322 79.632 31.6322 69.5353V38.1578C31.6322 35.5172 33.2115 33.1613 35.645 32.1775L59.5147 22.3914C60.2914 22.0808 61.1198 21.8995 61.9741 21.8995C62.8285 21.8995 63.6569 22.0549 64.4336 22.3914L88.3033 32.1775C90.7368 33.1871 92.3161 35.5172 92.3161 38.1578V69.5353C92.3161 79.658 88.5881 87.8647 81.2096 93.9745C74.8668 99.23 67.4367 101.689 63.5533 102.673C63.0874 102.829 62.5437 102.88 62 102.88Z" fill="url(#paint9_linear_41_7687)"/>
<path d="M62 86.9846C75.5832 86.9846 86.5945 75.9733 86.5945 62.39C86.5945 48.8068 75.5832 37.7955 62 37.7955C48.4168 37.7955 37.4055 48.8068 37.4055 62.39C37.4055 75.9733 48.4168 86.9846 62 86.9846Z" fill="url(#paint10_linear_41_7687)"/>
</g>
<path d="M61.5937 69.98V54.38L62.9617 55.796H58.0417V53.18H64.7137V69.98H61.5937Z" fill="#202223"/>
<defs>
<linearGradient id="paint0_linear_41_7687" x1="114.389" y1="61.0009" x2="83.7663" y2="30.3782" gradientUnits="userSpaceOnUse">
<stop offset="0.5" stop-color="#3F60AD"/>
<stop offset="1" stop-color="#84A6F8"/>
</linearGradient>
<linearGradient id="paint1_linear_41_7687" x1="120.526" y1="73.0634" x2="96.0845" y2="38.9082" gradientUnits="userSpaceOnUse">
<stop offset="0.5" stop-color="#3F60AD"/>
<stop offset="1" stop-color="#84A6F8"/>
</linearGradient>
<linearGradient id="paint2_linear_41_7687" x1="121.8" y1="84.4379" x2="101.345" y2="49.3843" gradientUnits="userSpaceOnUse">
<stop offset="0.5" stop-color="#3F60AD"/>
<stop offset="1" stop-color="#84A6F8"/>
</linearGradient>
<linearGradient id="paint3_linear_41_7687" x1="109.721" y1="94.4301" x2="87.8898" y2="59.6111" gradientUnits="userSpaceOnUse">
<stop offset="0.5" stop-color="#3F60AD"/>
<stop offset="1" stop-color="#84A6F8"/>
</linearGradient>
<linearGradient id="paint4_linear_41_7687" x1="40.2429" y1="61.0009" x2="9.62013" y2="30.3783" gradientUnits="userSpaceOnUse">
<stop offset="0.5" stop-color="#3F60AD"/>
<stop offset="1" stop-color="#84A6F8"/>
</linearGradient>
<linearGradient id="paint5_linear_41_7687" x1="39.58" y1="73.0634" x2="15.1407" y2="38.9025" gradientUnits="userSpaceOnUse">
<stop offset="0.5" stop-color="#3F60AD"/>
<stop offset="1" stop-color="#84A6F8"/>
</linearGradient>
<linearGradient id="paint6_linear_41_7687" x1="42.4701" y1="84.4379" x2="22.0137" y2="49.3867" gradientUnits="userSpaceOnUse">
<stop offset="0.5" stop-color="#3F60AD"/>
<stop offset="1" stop-color="#84A6F8"/>
</linearGradient>
<linearGradient id="paint7_linear_41_7687" x1="52.9972" y1="94.4301" x2="31.1703" y2="59.6017" gradientUnits="userSpaceOnUse">
<stop offset="0.5" stop-color="#3F60AD"/>
<stop offset="1" stop-color="#84A6F8"/>
</linearGradient>
<linearGradient id="paint8_linear_41_7687" x1="61.9974" y1="109.36" x2="61.9974" y2="15.4221" gradientUnits="userSpaceOnUse">
<stop stop-color="#6991EF"/>
<stop offset="1" stop-color="#97B4F6"/>
</linearGradient>
<linearGradient id="paint9_linear_41_7687" x1="61.9741" y1="21.8835" x2="61.9741" y2="102.864" gradientUnits="userSpaceOnUse">
<stop stop-color="#164ED0"/>
<stop offset="0.11" stop-color="#1644B0"/>
<stop offset="0.37" stop-color="#1242B1"/>
<stop offset="0.65" stop-color="#123A97"/>
<stop offset="1" stop-color="#0F3896"/>
</linearGradient>
<linearGradient id="paint10_linear_41_7687" x1="62" y1="86.9858" x2="62" y2="37.7968" gradientUnits="userSpaceOnUse">
<stop stop-color="#CCD6F1"/>
<stop offset="1" stop-color="#E8EDFA"/>
</linearGradient>
<clipPath id="clip0_41_7687">
<rect width="124" height="94.069" fill="white" transform="translate(0 15.3555)"/>
</clipPath>
</defs>
</svg>
