<svg width="24" height="24" viewBox="0 0 24 24" fill="none" xmlns="http://www.w3.org/2000/svg">
<path opacity="0.2" d="M9 11.25C13.1421 11.25 16.5 9.73893 16.5 7.875C16.5 6.01104 13.1421 4.5 9 4.5C4.85787 4.5 1.5 6.01104 1.5 7.875C1.5 9.73893 4.85787 11.25 9 11.25Z" fill="white"/>
<path opacity="0.2" d="M16.5 9.06567C19.9219 9.38441 22.5 10.7438 22.5 12.375C22.5 14.2407 19.1437 15.75 15 15.75C13.1625 15.75 11.475 15.45 10.1719 14.9625C13.7625 14.7094 16.5 13.3125 16.5 11.625V9.06567Z" fill="white"/>
<path d="M9 11.25C13.1421 11.25 16.5 9.73893 16.5 7.875C16.5 6.01104 13.1421 4.5 9 4.5C4.85787 4.5 1.5 6.01104 1.5 7.875C1.5 9.73893 4.85787 11.25 9 11.25Z" stroke="white" stroke-width="1.33333" stroke-linecap="round" stroke-linejoin="round"/>
<path d="M1.5 7.875V11.625C1.5 13.4906 4.85625 15 9 15C13.1437 15 16.5 13.4906 16.5 11.625V7.875" stroke="white" stroke-width="1.33333" stroke-linecap="round" stroke-linejoin="round"/>
<path d="M6 10.9688V14.7188" stroke="white" stroke-width="1.33333" stroke-linecap="round" stroke-linejoin="round"/>
<path d="M16.5 9.06567C19.9219 9.38441 22.5 10.7438 22.5 12.375C22.5 14.2407 19.1437 15.75 15 15.75C13.1625 15.75 11.475 15.45 10.1719 14.9625" stroke="white" stroke-width="1.33333" stroke-linecap="round" stroke-linejoin="round"/>
<path d="M7.5 14.9344V16.125C7.5 17.9906 10.8563 19.5 15 19.5C19.1437 19.5 22.5 17.9906 22.5 16.125V12.375" stroke="white" stroke-width="1.33333" stroke-linecap="round" stroke-linejoin="round"/>
<path d="M18 15.4688V19.2188" stroke="white" stroke-width="1.33333" stroke-linecap="round" stroke-linejoin="round"/>
<path d="M12 10.9688V19.2188" stroke="white" stroke-width="1.33333" stroke-linecap="round" stroke-linejoin="round"/>
</svg>
