<svg width="14" height="12" viewBox="0 0 14 12" fill="none" xmlns="http://www.w3.org/2000/svg">
<path d="M1.32617 0.5H12C12.2328 0.5 12.4204 0.577188 12.5889 0.745117C12.7568 0.914381 12.8329 1.10113 12.833 1.33301V8.66699C12.833 8.89938 12.7565 9.08631 12.5879 9.25586L12.583 9.26172C12.5086 9.3386 12.4191 9.39935 12.3203 9.44043C12.2215 9.48149 12.1148 9.50154 12.0078 9.5H6.79297L7.64648 10.3535L8.79199 11.5H4.54102L6.54102 9.5H1.33301C1.10052 9.4999 0.913737 9.42307 0.745117 9.25488L0.739258 9.24902C0.662274 9.17466 0.601691 9.08514 0.560547 8.98633C0.51938 8.8874 0.498473 8.78097 0.5 8.67383V1.33301C0.5001 1.10071 0.577104 0.913561 0.746094 0.744141L0.751953 0.739258C0.826355 0.66233 0.915826 0.60163 1.01465 0.560547C1.11339 0.519526 1.21926 0.498502 1.32617 0.5ZM0.833008 7.16699H12.5V0.833008H0.833008V7.16699Z" fill="white" stroke="white"/>
</svg>
