<svg width="14" height="12" viewBox="0 0 14 12" fill="none" xmlns="http://www.w3.org/2000/svg">
<path d="M4.3429 12.0001V11.3335L5.67624 10.0001H1.67624C1.30957 10.0001 0.996237 9.86946 0.734904 9.6088C0.608659 9.4869 0.508741 9.34042 0.441319 9.17841C0.373897 9.01639 0.340403 8.84227 0.342904 8.6668V1.33346C0.342904 0.966797 0.473571 0.653463 0.734904 0.391463C0.856778 0.265422 1.00317 0.165676 1.16507 0.0983722C1.32696 0.0310688 1.50093 -0.00236549 1.67624 0.000130088H12.3429C12.7096 0.000130088 13.0236 0.130797 13.2849 0.391463C13.5456 0.653463 13.6762 0.966797 13.6762 1.33346V8.6668C13.6762 9.03346 13.5456 9.3468 13.2849 9.6088C13.163 9.73492 13.0164 9.83472 12.8544 9.90202C12.6924 9.96933 12.5183 10.0027 12.3429 10.0001H8.3429L9.67624 11.3335V12.0001H4.3429ZM1.67624 6.6668H12.3429V1.33346H1.67624V6.6668Z" fill="#202223"/>
</svg>
